<svg xmlns="http://www.w3.org/2000/svg" xmlns:xlink="http://www.w3.org/1999/xlink" width="500" zoomAndPan="magnify" viewBox="0 0 375 374.999991" height="500" preserveAspectRatio="xMidYMid meet" version="1.0"><defs><g/><clipPath id="b9364a5bec"><path d="M 123 60.902344 L 289 60.902344 L 289 229.324219 L 123 229.324219 Z M 123 60.902344 " clip-rule="nonzero"/></clipPath><clipPath id="3043c5f0c1"><path d="M 50.191406 80.0625 L 327.976562 80.0625 L 327.976562 197.914062 L 50.191406 197.914062 Z M 50.191406 80.0625 " clip-rule="nonzero"/></clipPath><clipPath id="53af157d67"><path d="M 47.285156 71.351562 L 327.976562 71.351562 L 327.976562 215.914062 L 47.285156 215.914062 Z M 47.285156 71.351562 " clip-rule="nonzero"/></clipPath></defs><path fill="#67c7f2" d="M 69.378906 138.277344 C 69.378906 135.875 71.328125 133.929688 73.734375 133.929688 C 76.136719 133.929688 79.777344 136.484375 79.777344 138.882812 C 79.777344 141.285156 76.136719 143.839844 73.734375 143.839844 C 71.328125 143.839844 69.378906 140.679688 69.378906 138.277344 Z M 238.414062 178.390625 C 238.40625 182.988281 238.265625 187.582031 238.007812 192.171875 C 235.816406 192.105469 233.613281 192.039062 231.410156 191.976562 C 233.605469 173.003906 232.996094 152.265625 215.785156 140.339844 C 207.816406 134.820312 197.84375 134.074219 189.109375 138.238281 C 179.566406 142.789062 173.304688 151.898438 169.933594 161.640625 C 166.675781 171.054688 165.472656 181.324219 164.882812 191.449219 C 161.492188 191.566406 157.898438 191.695312 154.214844 191.828125 C 155.082031 169.066406 159.800781 143.921875 180.984375 131.53125 C 191.683594 125.269531 203.414062 125.511719 214.617188 130.445312 C 225.460938 135.21875 234.101562 143.382812 236.796875 155.1875 C 238.519531 162.71875 238.433594 170.710938 238.414062 178.390625 " fill-opacity="1" fill-rule="nonzero"/><path fill="#62c780" d="M 310.964844 146.253906 C 310.964844 144.324219 314.363281 142.316406 316.300781 142.316406 C 318.234375 142.316406 319.804688 143.886719 319.804688 145.816406 C 319.804688 147.75 318.234375 150.40625 316.300781 150.40625 C 314.363281 150.40625 310.964844 148.1875 310.964844 146.253906 Z M 100.636719 219.03125 C 100.636719 216.628906 102.585938 214.683594 104.988281 214.683594 C 107.394531 214.683594 110.21875 216.628906 110.21875 219.03125 C 110.21875 221.433594 107.699219 224.152344 105.292969 224.152344 C 102.890625 224.152344 100.636719 221.433594 100.636719 219.03125 Z M 257.386719 164.414062 C 255.746094 165.1875 254.332031 166.34375 253.1875 167.863281 C 248.464844 174.132812 249.597656 185.339844 251.019531 192.566406 C 248.523438 192.492188 245.984375 192.414062 243.414062 192.335938 C 243.675781 187.695312 243.820312 183.046875 243.832031 178.390625 C 243.847656 170.875 243.804688 163.203125 242.4375 155.789062 C 240.058594 142.902344 231.734375 133.09375 220.21875 127.144531 C 208.457031 121.074219 195.339844 119.117188 182.964844 124.484375 C 171.769531 129.339844 162.792969 138.785156 157.488281 149.664062 C 151.066406 162.835938 149.261719 177.515625 148.78125 192.023438 C 146.484375 192.101562 144.191406 192.183594 141.898438 192.257812 C 143.59375 183.957031 145.316406 169.898438 139.753906 162.355469 C 140.453125 156.859375 141.503906 151.417969 143.375 146.210938 C 148.558594 131.777344 160.226562 119.960938 174.15625 113.726562 C 189.871094 106.699219 208.472656 106.847656 224.421875 113.046875 C 232.710938 116.269531 239.597656 121.363281 244.5 128.828125 C 249.03125 135.730469 252.433594 143.339844 254.707031 151.269531 C 255.945312 155.589844 256.835938 159.984375 257.386719 164.414062 " fill-opacity="1" fill-rule="nonzero"/><g clip-path="url(#b9364a5bec)"><path fill="#fbca3f" d="M 141.621094 65.25 C 141.621094 62.851562 143.570312 60.90625 145.976562 60.90625 C 148.378906 60.90625 152.019531 63.460938 152.019531 65.859375 C 152.019531 68.261719 148.378906 70.816406 145.976562 70.816406 C 143.570312 70.816406 141.621094 67.652344 141.621094 65.25 Z M 278.585938 223.765625 C 278.585938 221.363281 280.535156 219.417969 282.941406 219.417969 C 285.34375 219.417969 288.984375 221.972656 288.984375 224.375 C 288.984375 226.777344 285.34375 229.328125 282.941406 229.328125 C 280.535156 229.328125 278.585938 226.164062 278.585938 223.765625 Z M 274.632812 161.582031 C 274.082031 163.351562 273.640625 165.121094 273.28125 166.796875 C 270.855469 165.054688 268.183594 163.960938 265.804688 163.546875 C 264.761719 163.363281 263.742188 163.273438 262.78125 163.273438 C 262.753906 163.273438 262.726562 163.273438 262.695312 163.273438 C 262.316406 160.347656 261.804688 157.4375 261.144531 154.558594 C 257.328125 137.871094 248.929688 119.8125 233.335938 111.261719 C 201.875 93.996094 158.917969 104.617188 141.730469 136.699219 C 138.078125 143.519531 136.144531 150.84375 134.945312 158.359375 C 133.136719 157.503906 131.078125 157.066406 128.828125 157.066406 C 127.722656 157.066406 126.550781 157.167969 125.34375 157.378906 C 124.597656 157.511719 123.820312 157.707031 123.023438 157.960938 C 123.671875 153.523438 124.535156 149.117188 125.691406 144.765625 C 128.203125 135.300781 132.089844 126.136719 137.808594 118.144531 C 143.933594 109.582031 152.527344 103.792969 161.816406 99.101562 C 171.230469 94.347656 181.507812 90.832031 192.074219 89.992188 C 202.378906 89.175781 212.648438 90.839844 222.449219 93.996094 C 232.074219 97.09375 241.632812 101.46875 250.074219 107.054688 C 259.050781 112.992188 264.621094 121.84375 268.394531 131.761719 C 272.066406 141.421875 273.882812 151.433594 274.632812 161.582031 " fill-opacity="1" fill-rule="nonzero"/></g><g clip-path="url(#3043c5f0c1)"><path fill="#fde9aa" d="M 126.066406 161.523438 C 121.773438 162.269531 115.949219 165.589844 112.894531 172.917969 C 112.894531 172.917969 119.75 131.714844 95.542969 143.695312 C 95.542969 143.695312 77.777344 152.464844 78.070312 173.210938 C 78.070312 173.210938 43.972656 161.523438 51.65625 197.464844 L 136.3125 197.464844 C 136.3125 197.464844 147.816406 157.742188 126.066406 161.523438 Z M 305.046875 177.421875 C 305.726562 165.070312 302.410156 156.25 297.015625 152.550781 C 278.472656 139.835938 276.046875 177.175781 276.046875 177.175781 C 274.207031 171.398438 268.65625 168.308594 265.082031 167.6875 C 246.972656 164.539062 256.554688 197.617188 256.554688 197.617188 L 327.039062 197.617188 C 333.433594 167.6875 305.046875 177.421875 305.046875 177.421875 Z M 248.316406 190.695312 C 247.988281 190.691406 247.722656 190.933594 247.710938 191.253906 C 247.691406 191.734375 247.671875 192.21875 247.648438 192.699219 C 247.632812 193.019531 247.882812 193.292969 248.203125 193.308594 C 248.210938 193.308594 248.222656 193.308594 248.230469 193.308594 C 248.539062 193.308594 248.796875 193.066406 248.808594 192.753906 C 248.832031 192.269531 248.851562 191.785156 248.871094 191.300781 C 248.886719 190.980469 248.636719 190.710938 248.316406 190.695312 Z M 162.546875 134.628906 C 161.914062 135.34375 161.285156 136.082031 160.679688 136.828125 C 160.480469 137.078125 160.519531 137.445312 160.769531 137.644531 C 160.875 137.730469 161.007812 137.773438 161.132812 137.773438 C 161.304688 137.773438 161.472656 137.699219 161.585938 137.558594 C 162.179688 136.824219 162.792969 136.101562 163.417969 135.402344 C 163.628906 135.164062 163.609375 134.796875 163.367188 134.582031 C 163.128906 134.371094 162.761719 134.390625 162.546875 134.628906 Z M 236.597656 133.933594 C 236.375 133.699219 236.007812 133.6875 235.773438 133.910156 C 235.539062 134.128906 235.527344 134.492188 235.746094 134.726562 C 236.390625 135.414062 237.015625 136.125 237.609375 136.84375 C 237.722656 136.980469 237.890625 137.054688 238.058594 137.054688 C 238.1875 137.054688 238.320312 137.011719 238.425781 136.921875 C 238.675781 136.71875 238.710938 136.355469 238.507812 136.105469 C 237.898438 135.371094 237.257812 134.640625 236.597656 133.933594 Z M 168.753906 128.613281 C 168.019531 129.226562 167.289062 129.867188 166.585938 130.515625 C 166.351562 130.734375 166.335938 131.101562 166.554688 131.335938 C 166.667969 131.460938 166.824219 131.523438 166.980469 131.523438 C 167.121094 131.523438 167.265625 131.472656 167.375 131.367188 C 168.066406 130.730469 168.78125 130.105469 169.5 129.503906 C 169.746094 129.296875 169.78125 128.933594 169.574219 128.6875 C 169.367188 128.441406 169 128.40625 168.753906 128.613281 Z M 230.109375 128.195312 C 229.851562 128.003906 229.488281 128.058594 229.296875 128.3125 C 229.105469 128.574219 229.160156 128.9375 229.417969 129.128906 C 230.179688 129.6875 230.925781 130.269531 231.640625 130.867188 C 231.75 130.957031 231.882812 131 232.011719 131 C 232.179688 131 232.34375 130.929688 232.460938 130.792969 C 232.664062 130.546875 232.632812 130.179688 232.386719 129.976562 C 231.652344 129.363281 230.886719 128.765625 230.109375 128.195312 Z M 147.929688 164.765625 C 147.613281 164.683594 147.300781 164.875 147.222656 165.1875 C 146.996094 166.101562 146.773438 167.042969 146.570312 167.984375 C 146.503906 168.296875 146.699219 168.605469 147.011719 168.675781 C 147.054688 168.683594 147.097656 168.6875 147.136719 168.6875 C 147.40625 168.6875 147.648438 168.503906 147.707031 168.230469 C 147.910156 167.300781 148.125 166.371094 148.351562 165.46875 C 148.429688 165.15625 148.238281 164.84375 147.929688 164.765625 Z M 173.214844 125.960938 C 173.328125 126.128906 173.511719 126.214844 173.699219 126.214844 C 173.808594 126.214844 173.921875 126.183594 174.019531 126.117188 C 174.804688 125.59375 175.609375 125.089844 176.410156 124.613281 C 176.6875 124.449219 176.777344 124.09375 176.613281 123.816406 C 176.449219 123.542969 176.09375 123.449219 175.816406 123.617188 C 174.996094 124.101562 174.175781 124.617188 173.375 125.15625 C 173.109375 125.332031 173.039062 125.691406 173.214844 125.960938 Z M 157.269531 141.472656 C 156.742188 142.265625 156.226562 143.085938 155.730469 143.90625 C 155.566406 144.183594 155.65625 144.539062 155.929688 144.703125 C 156.023438 144.761719 156.128906 144.785156 156.226562 144.785156 C 156.425781 144.785156 156.617188 144.683594 156.726562 144.503906 C 157.214844 143.695312 157.722656 142.894531 158.238281 142.117188 C 158.417969 141.847656 158.34375 141.488281 158.078125 141.308594 C 157.8125 141.132812 157.449219 141.203125 157.269531 141.472656 Z M 150.429688 156.582031 C 150.128906 156.472656 149.796875 156.632812 149.691406 156.9375 C 149.375 157.824219 149.070312 158.742188 148.78125 159.660156 C 148.683594 159.964844 148.851562 160.292969 149.160156 160.386719 C 149.214844 160.410156 149.273438 160.414062 149.335938 160.414062 C 149.578125 160.414062 149.808594 160.257812 149.886719 160.007812 C 150.175781 159.105469 150.476562 158.199219 150.789062 157.320312 C 150.894531 157.019531 150.734375 156.6875 150.429688 156.582031 Z M 145 181.617188 C 144.679688 181.582031 144.390625 181.820312 144.359375 182.136719 C 144.261719 183.085938 144.175781 184.035156 144.097656 184.988281 C 144.070312 185.308594 144.304688 185.589844 144.625 185.613281 C 144.644531 185.617188 144.660156 185.617188 144.675781 185.617188 C 144.976562 185.617188 145.230469 185.386719 145.253906 185.085938 C 145.335938 184.140625 145.421875 183.199219 145.515625 182.253906 C 145.550781 181.9375 145.316406 181.652344 145 181.617188 Z M 146.160156 173.136719 C 145.84375 173.085938 145.542969 173.296875 145.488281 173.617188 C 145.332031 174.558594 145.1875 175.503906 145.050781 176.449219 C 145.007812 176.765625 145.226562 177.0625 145.546875 177.105469 C 145.574219 177.109375 145.601562 177.109375 145.628906 177.109375 C 145.914062 177.109375 146.160156 176.902344 146.203125 176.613281 C 146.335938 175.675781 146.480469 174.738281 146.636719 173.804688 C 146.6875 173.488281 146.476562 173.191406 146.160156 173.136719 Z M 189.3125 119.386719 C 189.351562 119.386719 189.394531 119.382812 189.4375 119.375 C 190.347656 119.171875 191.277344 119.003906 192.207031 118.867188 C 192.523438 118.820312 192.746094 118.523438 192.699219 118.207031 C 192.648438 117.890625 192.355469 117.671875 192.035156 117.71875 C 191.082031 117.859375 190.125 118.035156 189.1875 118.238281 C 188.871094 118.308594 188.675781 118.617188 188.742188 118.929688 C 188.800781 119.203125 189.042969 119.386719 189.3125 119.386719 Z M 248.347656 169.003906 C 248.355469 169.003906 248.363281 169.003906 248.375 169.003906 C 248.691406 168.988281 248.941406 168.71875 248.925781 168.398438 C 248.882812 167.441406 248.832031 166.488281 248.769531 165.535156 C 248.746094 165.214844 248.476562 164.96875 248.148438 164.996094 C 247.828125 165.019531 247.585938 165.296875 247.609375 165.613281 C 247.671875 166.558594 247.722656 167.503906 247.765625 168.449219 C 247.78125 168.761719 248.035156 169.003906 248.347656 169.003906 Z M 222.21875 124.675781 L 222.316406 124.730469 C 223.117188 125.144531 223.921875 125.582031 224.695312 126.03125 C 224.789062 126.085938 224.886719 126.109375 224.988281 126.109375 C 225.1875 126.109375 225.382812 126.007812 225.488281 125.820312 C 225.652344 125.546875 225.558594 125.1875 225.28125 125.027344 C 224.488281 124.566406 223.671875 124.121094 222.851562 123.695312 L 222.746094 123.640625 C 222.460938 123.496094 222.109375 123.609375 221.964844 123.894531 C 221.816406 124.179688 221.929688 124.53125 222.21875 124.675781 Z M 248.503906 173.546875 C 248.5 173.546875 248.496094 173.546875 248.496094 173.546875 C 248.175781 173.550781 247.917969 173.816406 247.921875 174.136719 C 247.933594 175.085938 247.941406 176.035156 247.945312 176.984375 C 247.945312 177.304688 248.203125 177.5625 248.523438 177.5625 C 248.527344 177.5625 248.527344 177.5625 248.527344 177.5625 C 248.847656 177.5625 249.109375 177.300781 249.105469 176.980469 C 249.105469 176.027344 249.097656 175.074219 249.085938 174.121094 C 249.082031 173.800781 248.820312 173.546875 248.503906 173.546875 Z M 248.519531 182.109375 C 248.519531 182.109375 248.515625 182.109375 248.515625 182.109375 C 248.195312 182.109375 247.933594 182.363281 247.933594 182.683594 C 247.921875 183.632812 247.90625 184.582031 247.890625 185.527344 C 247.878906 185.851562 248.136719 186.117188 248.457031 186.121094 C 248.460938 186.121094 248.464844 186.121094 248.472656 186.121094 C 248.785156 186.121094 249.042969 185.871094 249.050781 185.554688 C 249.070312 184.601562 249.085938 183.648438 249.09375 182.695312 C 249.097656 182.375 248.839844 182.109375 248.519531 182.109375 Z M 214.429688 121.3125 C 215.304688 121.617188 216.191406 121.953125 217.074219 122.3125 C 217.144531 122.339844 217.21875 122.355469 217.289062 122.355469 C 217.519531 122.355469 217.738281 122.214844 217.832031 121.992188 C 217.953125 121.695312 217.808594 121.355469 217.511719 121.234375 C 216.613281 120.871094 215.707031 120.527344 214.8125 120.214844 C 214.507812 120.109375 214.179688 120.269531 214.074219 120.570312 C 213.964844 120.875 214.125 121.203125 214.429688 121.3125 Z M 197.816406 118.429688 C 197.816406 118.429688 197.820312 118.429688 197.820312 118.429688 L 198.277344 118.425781 C 199.0625 118.425781 199.855469 118.445312 200.640625 118.488281 C 200.652344 118.492188 200.660156 118.492188 200.671875 118.492188 C 200.976562 118.492188 201.234375 118.25 201.25 117.945312 C 201.269531 117.621094 201.023438 117.347656 200.703125 117.332031 C 199.898438 117.289062 199.082031 117.265625 198.277344 117.265625 L 197.808594 117.269531 C 197.488281 117.273438 197.230469 117.535156 197.234375 117.855469 C 197.238281 118.171875 197.496094 118.429688 197.816406 118.429688 Z M 206.445312 118 C 206.128906 117.941406 205.828125 118.15625 205.769531 118.46875 C 205.714844 118.785156 205.925781 119.085938 206.242188 119.144531 C 207.152344 119.304688 208.085938 119.5 209.007812 119.71875 C 209.054688 119.726562 209.097656 119.734375 209.140625 119.734375 C 209.40625 119.734375 209.644531 119.554688 209.707031 119.285156 C 209.78125 118.976562 209.589844 118.664062 209.277344 118.585938 C 208.332031 118.367188 207.382812 118.164062 206.445312 118 Z M 245.667969 148.59375 C 245.558594 148.292969 245.226562 148.136719 244.921875 148.246094 C 244.621094 148.355469 244.464844 148.6875 244.574219 148.988281 C 244.894531 149.863281 245.1875 150.761719 245.449219 151.664062 C 245.523438 151.917969 245.753906 152.082031 246.007812 152.082031 C 246.0625 152.082031 246.117188 152.078125 246.171875 152.058594 C 246.480469 151.972656 246.65625 151.648438 246.566406 151.339844 C 246.296875 150.414062 245.996094 149.488281 245.667969 148.59375 Z M 241.878906 140.800781 C 241.710938 140.527344 241.351562 140.445312 241.078125 140.613281 C 240.804688 140.78125 240.722656 141.140625 240.890625 141.414062 C 241.382812 142.207031 241.855469 143.027344 242.292969 143.851562 C 242.398438 144.046875 242.597656 144.160156 242.804688 144.160156 C 242.898438 144.160156 242.992188 144.140625 243.078125 144.09375 C 243.363281 143.945312 243.46875 143.59375 243.320312 143.308594 C 242.871094 142.460938 242.386719 141.617188 241.878906 140.800781 Z M 153.769531 148.703125 C 153.480469 148.566406 153.132812 148.6875 152.996094 148.972656 C 152.582031 149.828125 152.179688 150.707031 151.792969 151.589844 C 151.667969 151.882812 151.800781 152.226562 152.097656 152.351562 C 152.171875 152.382812 152.25 152.402344 152.328125 152.402344 C 152.550781 152.402344 152.765625 152.269531 152.863281 152.054688 C 153.238281 151.1875 153.636719 150.320312 154.042969 149.480469 C 154.179688 149.1875 154.0625 148.84375 153.769531 148.703125 Z M 181.183594 122.070312 C 181.265625 122.070312 181.34375 122.050781 181.421875 122.019531 L 181.878906 121.820312 C 182.589844 121.511719 183.316406 121.21875 184.03125 120.957031 C 184.332031 120.84375 184.488281 120.511719 184.375 120.207031 C 184.265625 119.90625 183.929688 119.753906 183.628906 119.863281 C 182.890625 120.136719 182.148438 120.4375 181.414062 120.753906 L 180.949219 120.960938 C 180.65625 121.089844 180.523438 121.433594 180.65625 121.726562 C 180.75 121.941406 180.964844 122.070312 181.183594 122.070312 Z M 247.71875 160.472656 C 248.035156 160.429688 248.261719 160.140625 248.222656 159.824219 C 248.097656 158.855469 247.960938 157.898438 247.808594 156.976562 C 247.757812 156.660156 247.460938 156.449219 247.140625 156.5 C 246.824219 156.550781 246.609375 156.851562 246.660156 157.164062 C 246.808594 158.070312 246.945312 159.011719 247.066406 159.96875 C 247.105469 160.261719 247.355469 160.476562 247.644531 160.476562 C 247.667969 160.476562 247.695312 160.472656 247.71875 160.472656 Z M 144.320312 190.152344 C 144 190.132812 143.722656 190.378906 143.707031 190.699219 C 143.679688 191.183594 143.65625 191.671875 143.632812 192.15625 C 143.617188 192.476562 143.867188 192.746094 144.1875 192.761719 C 144.195312 192.761719 144.207031 192.761719 144.214844 192.761719 C 144.523438 192.761719 144.78125 192.519531 144.792969 192.210938 C 144.816406 191.726562 144.839844 191.242188 144.867188 190.761719 C 144.886719 190.441406 144.640625 190.167969 144.320312 190.152344 Z M 116.5625 148.601562 C 117.507812 148.601562 118.324219 147.960938 118.546875 147.039062 C 118.800781 145.949219 118.121094 144.855469 117.035156 144.59375 C 116.878906 144.558594 116.722656 144.539062 116.5625 144.539062 C 116.015625 144.539062 115.503906 144.773438 115.125 145.15625 L 116.429688 148.589844 C 116.472656 148.59375 116.519531 148.601562 116.5625 148.601562 Z M 231.746094 87.003906 C 231.511719 86.914062 231.261719 86.867188 231.011719 86.867188 C 230.164062 86.867188 229.417969 87.375 229.109375 88.167969 C 228.714844 89.210938 229.238281 90.390625 230.285156 90.792969 C 230.519531 90.882812 230.769531 90.929688 231.007812 90.929688 C 231.847656 90.929688 232.613281 90.40625 232.914062 89.628906 C 233.109375 89.125 233.09375 88.570312 232.875 88.074219 C 232.652344 87.578125 232.25 87.195312 231.746094 87.003906 Z M 218.875 87.09375 C 219.042969 87.140625 219.210938 87.164062 219.410156 87.164062 C 220.335938 87.164062 221.144531 86.539062 221.371094 85.648438 C 221.65625 84.566406 221.007812 83.453125 219.925781 83.171875 C 219.753906 83.125 219.574219 83.101562 219.398438 83.101562 C 218.480469 83.101562 217.671875 83.722656 217.441406 84.613281 C 217.300781 85.136719 217.371094 85.679688 217.644531 86.152344 C 217.917969 86.621094 218.359375 86.957031 218.875 87.09375 Z M 207.175781 84.8125 L 207.832031 84.890625 L 207.832031 84.785156 C 208.671875 84.613281 209.339844 83.925781 209.449219 83.046875 C 209.589844 81.941406 208.796875 80.921875 207.683594 80.773438 C 207.597656 80.765625 207.511719 80.757812 207.429688 80.757812 C 206.40625 80.757812 205.539062 81.523438 205.410156 82.539062 C 205.277344 83.648438 206.066406 84.664062 207.175781 84.8125 Z M 270.210938 118.453125 C 270.582031 118.453125 270.953125 118.347656 271.273438 118.15625 C 272.230469 117.570312 272.53125 116.316406 271.945312 115.359375 C 271.570312 114.753906 270.921875 114.390625 270.207031 114.390625 C 269.835938 114.390625 269.464844 114.492188 269.140625 114.691406 C 268.1875 115.28125 267.890625 116.535156 268.472656 117.484375 C 268.847656 118.089844 269.496094 118.453125 270.210938 118.453125 Z M 277.550781 139.417969 C 277.789062 140.300781 278.597656 140.917969 279.511719 140.917969 C 279.710938 140.917969 279.882812 140.894531 280.046875 140.847656 C 281.132812 140.554688 281.773438 139.4375 281.480469 138.355469 C 281.242188 137.472656 280.433594 136.855469 279.515625 136.855469 C 279.335938 136.855469 279.15625 136.878906 278.984375 136.925781 C 277.902344 137.21875 277.257812 138.335938 277.550781 139.417969 Z M 195.25 84.226562 L 195.308594 84.226562 L 195.320312 84.222656 C 196.433594 84.183594 197.316406 83.242188 197.285156 82.125 C 197.246094 81.023438 196.347656 80.160156 195.246094 80.160156 L 195.1875 80.160156 C 194.640625 80.175781 194.136719 80.40625 193.761719 80.800781 C 193.390625 81.199219 193.195312 81.71875 193.214844 82.257812 C 193.246094 83.359375 194.140625 84.226562 195.25 84.226562 Z M 243.105469 91.855469 C 242.832031 91.726562 242.539062 91.660156 242.234375 91.660156 C 241.453125 91.660156 240.730469 92.117188 240.394531 92.824219 C 239.917969 93.835938 240.355469 95.050781 241.371094 95.53125 C 241.648438 95.660156 241.9375 95.726562 242.234375 95.726562 C 243.027344 95.726562 243.75 95.265625 244.074219 94.558594 C 244.308594 94.070312 244.335938 93.519531 244.152344 93.007812 C 243.972656 92.5 243.597656 92.089844 243.105469 91.855469 Z M 275.640625 129.363281 C 275.894531 129.363281 276.152344 129.3125 276.40625 129.214844 C 277.449219 128.789062 277.949219 127.601562 277.527344 126.566406 C 277.214844 125.792969 276.476562 125.296875 275.644531 125.296875 C 275.382812 125.296875 275.125 125.347656 274.882812 125.445312 C 273.84375 125.867188 273.339844 127.050781 273.753906 128.089844 C 274.066406 128.863281 274.8125 129.363281 275.640625 129.363281 Z M 149.285156 95.0625 C 148.90625 95.0625 148.539062 95.164062 148.214844 95.363281 C 147.265625 95.960938 146.96875 97.214844 147.5625 98.171875 C 147.941406 98.769531 148.585938 99.128906 149.292969 99.128906 C 149.675781 99.128906 150.050781 99.019531 150.367188 98.820312 C 151.320312 98.226562 151.613281 96.96875 151.015625 96.019531 C 150.640625 95.417969 149.996094 95.0625 149.285156 95.0625 Z M 130.085938 114.980469 C 130.441406 115.238281 130.859375 115.375 131.296875 115.375 C 131.9375 115.375 132.550781 115.070312 132.933594 114.554688 C 133.59375 113.660156 133.40625 112.386719 132.507812 111.710938 C 132.15625 111.453125 131.742188 111.316406 131.300781 111.316406 C 130.65625 111.316406 130.042969 111.621094 129.660156 112.140625 C 129.339844 112.578125 129.203125 113.113281 129.285156 113.648438 C 129.363281 114.183594 129.648438 114.65625 130.085938 114.980469 Z M 183.125 85.601562 C 183.253906 85.601562 183.386719 85.585938 183.515625 85.5625 C 184.617188 85.347656 185.339844 84.28125 185.128906 83.179688 C 184.945312 82.226562 184.101562 81.535156 183.128906 81.535156 C 183 81.535156 182.875 81.546875 182.746094 81.570312 C 182.210938 81.671875 181.75 81.972656 181.445312 82.421875 C 181.140625 82.875 181.027344 83.414062 181.132812 83.953125 C 181.3125 84.90625 182.152344 85.601562 183.125 85.601562 Z M 123.964844 125.523438 C 124.253906 125.671875 124.574219 125.75 124.898438 125.75 C 125.667969 125.75 126.359375 125.328125 126.710938 124.648438 C 126.957031 124.164062 127.003906 123.613281 126.835938 123.097656 C 126.671875 122.578125 126.3125 122.15625 125.828125 121.90625 C 125.542969 121.761719 125.21875 121.683594 124.898438 121.683594 C 124.128906 121.683594 123.433594 122.105469 123.085938 122.789062 C 122.835938 123.269531 122.792969 123.820312 122.960938 124.339844 C 123.128906 124.855469 123.488281 125.277344 123.964844 125.523438 Z M 139.492188 102.308594 C 138.992188 102.308594 138.507812 102.488281 138.136719 102.820312 C 137.730469 103.183594 137.492188 103.679688 137.460938 104.222656 C 137.429688 104.765625 137.613281 105.285156 137.972656 105.6875 C 138.351562 106.125 138.90625 106.375 139.488281 106.375 C 139.992188 106.375 140.472656 106.1875 140.847656 105.855469 C 141.679688 105.113281 141.753906 103.824219 141.011719 102.984375 C 140.625 102.550781 140.070312 102.308594 139.492188 102.308594 Z M 119.355469 136.808594 C 119.589844 136.890625 119.816406 136.925781 120.046875 136.925781 C 120.898438 136.925781 121.667969 136.390625 121.957031 135.585938 C 122.339844 134.53125 121.792969 133.367188 120.738281 132.984375 C 120.515625 132.902344 120.28125 132.863281 120.042969 132.863281 C 119.335938 132.863281 118.6875 133.234375 118.320312 133.824219 L 118.261719 133.824219 L 118.128906 134.207031 C 117.753906 135.261719 118.300781 136.425781 119.355469 136.808594 Z M 254.695312 100.570312 C 255.285156 99.625 255 98.367188 254.054688 97.769531 C 253.730469 97.566406 253.355469 97.460938 252.976562 97.460938 C 252.269531 97.460938 251.625 97.8125 251.253906 98.402344 C 250.652344 99.351562 250.9375 100.609375 251.886719 101.210938 C 252.214844 101.414062 252.589844 101.523438 252.96875 101.523438 C 253.667969 101.523438 254.3125 101.171875 254.695312 100.570312 Z M 171.234375 88.914062 L 172.007812 88.652344 C 172.523438 88.476562 172.933594 88.109375 173.171875 87.621094 C 173.410156 87.128906 173.445312 86.578125 173.269531 86.066406 C 172.988281 85.25 172.214844 84.695312 171.351562 84.695312 C 171.121094 84.695312 170.898438 84.734375 170.6875 84.808594 C 170.171875 84.984375 169.757812 85.351562 169.519531 85.839844 C 169.28125 86.324219 169.25 86.875 169.421875 87.382812 C 169.6875 88.167969 170.410156 88.710938 171.234375 88.757812 Z M 161.960938 92.027344 C 162.148438 91.519531 162.121094 90.96875 161.890625 90.484375 C 161.558594 89.769531 160.832031 89.304688 160.046875 89.304688 C 159.746094 89.304688 159.457031 89.371094 159.1875 89.5 C 158.175781 89.96875 157.730469 91.175781 158.203125 92.195312 C 158.53125 92.90625 159.253906 93.371094 160.050781 93.371094 C 160.351562 93.371094 160.640625 93.304688 160.902344 93.179688 C 161.398438 92.949219 161.773438 92.542969 161.960938 92.027344 Z M 262.640625 108.933594 C 263.191406 108.933594 263.730469 108.703125 264.113281 108.304688 C 264.886719 107.496094 264.859375 106.207031 264.054688 105.4375 C 263.671875 105.070312 263.167969 104.867188 262.640625 104.867188 C 262.082031 104.867188 261.5625 105.085938 261.171875 105.492188 C 260.402344 106.296875 260.425781 107.585938 261.230469 108.367188 C 261.613281 108.730469 262.113281 108.933594 262.640625 108.933594 Z M 225.375 163.09375 C 227.96875 172.449219 227.34375 182.242188 226.082031 191.820312 C 223.296875 191.742188 220.53125 191.664062 217.800781 191.589844 C 217.832031 183.53125 217.175781 175.4375 215.621094 167.546875 C 214.054688 159.605469 208.6875 153.492188 199.984375 154.535156 C 191.515625 155.554688 186.136719 163.039062 183.503906 170.519531 C 181.207031 177.042969 179.878906 184.046875 178.886719 191.011719 C 178.117188 191.019531 177.386719 191.039062 176.714844 191.058594 C 174.769531 191.113281 172.636719 191.183594 170.363281 191.257812 C 170.828125 184.304688 171.609375 177.359375 173.078125 170.597656 C 175.082031 161.386719 178.871094 152.320312 186.414062 146.285156 C 193.347656 140.738281 202.574219 139.101562 210.542969 143.457031 C 217.957031 147.507812 223.152344 155.058594 225.375 163.09375 " fill-opacity="1" fill-rule="nonzero"/></g><g clip-path="url(#53af157d67)"><path fill="#f46799" d="M 218.535156 210.113281 C 218.535156 207.710938 220.484375 205.765625 222.890625 205.765625 C 225.292969 205.765625 228.933594 208.320312 228.933594 210.722656 C 228.933594 213.125 225.292969 215.675781 222.890625 215.675781 C 220.484375 215.675781 218.535156 212.515625 218.535156 210.113281 Z M 284.785156 76.054688 C 284.785156 73.652344 286.738281 71.707031 289.140625 71.707031 C 291.546875 71.707031 295.1875 74.261719 295.1875 76.664062 C 295.1875 79.0625 291.546875 81.617188 289.140625 81.617188 C 286.738281 81.617188 284.785156 78.453125 284.785156 76.054688 Z M 304.210938 191.273438 C 303.410156 191.273438 302.757812 191.925781 302.757812 192.722656 C 302.757812 193.527344 303.410156 194.175781 304.210938 194.175781 C 305.015625 194.175781 305.664062 193.527344 305.664062 192.722656 C 305.664062 191.925781 305.015625 191.273438 304.210938 191.273438 Z M 326.308594 191.273438 C 325.503906 191.273438 324.855469 191.925781 324.855469 192.722656 C 324.855469 193.527344 325.503906 194.175781 326.308594 194.175781 C 327.109375 194.175781 327.761719 193.527344 327.761719 192.722656 C 327.761719 191.925781 327.109375 191.273438 326.308594 191.273438 Z M 315.261719 191.273438 C 314.457031 191.273438 313.804688 191.925781 313.804688 192.722656 C 313.804688 193.527344 314.457031 194.175781 315.261719 194.175781 C 316.0625 194.175781 316.714844 193.527344 316.714844 192.722656 C 316.714844 191.925781 316.0625 191.273438 315.261719 191.273438 Z M 271.070312 191.273438 C 270.269531 191.273438 269.617188 191.925781 269.617188 192.722656 C 269.617188 193.527344 270.269531 194.175781 271.070312 194.175781 C 271.875 194.175781 272.523438 193.527344 272.523438 192.722656 C 272.523438 191.925781 271.875 191.273438 271.070312 191.273438 Z M 293.164062 191.273438 C 292.363281 191.273438 291.710938 191.925781 291.710938 192.722656 C 291.710938 193.527344 292.363281 194.175781 293.164062 194.175781 C 293.96875 194.175781 294.617188 193.527344 294.617188 192.722656 C 294.617188 191.925781 293.96875 191.273438 293.164062 191.273438 Z M 282.117188 191.273438 C 281.316406 191.273438 280.664062 191.925781 280.664062 192.722656 C 280.664062 193.527344 281.316406 194.175781 282.117188 194.175781 C 282.921875 194.175781 283.570312 193.527344 283.570312 192.722656 C 283.570312 191.925781 282.921875 191.273438 282.117188 191.273438 Z M 260.023438 191.273438 C 259.21875 191.273438 258.570312 191.925781 258.570312 192.722656 C 258.570312 193.527344 259.21875 194.175781 260.023438 194.175781 C 260.828125 194.175781 261.476562 193.527344 261.476562 192.722656 C 261.476562 191.925781 260.828125 191.273438 260.023438 191.273438 Z M 70.832031 190.367188 C 70.03125 190.367188 69.378906 191.019531 69.378906 191.820312 C 69.378906 192.621094 70.03125 193.269531 70.832031 193.269531 C 71.632812 193.269531 72.285156 192.621094 72.285156 191.820312 C 72.285156 191.019531 71.632812 190.367188 70.832031 190.367188 Z M 81.878906 190.367188 C 81.078125 190.367188 80.425781 191.019531 80.425781 191.820312 C 80.425781 192.621094 81.078125 193.269531 81.878906 193.269531 C 82.679688 193.269531 83.332031 192.621094 83.332031 191.820312 C 83.332031 191.019531 82.679688 190.367188 81.878906 190.367188 Z M 59.785156 190.367188 C 58.984375 190.367188 58.332031 191.019531 58.332031 191.820312 C 58.332031 192.621094 58.984375 193.269531 59.785156 193.269531 C 60.585938 193.269531 61.238281 192.621094 61.238281 191.820312 C 61.238281 191.019531 60.585938 190.367188 59.785156 190.367188 Z M 48.738281 190.367188 C 47.9375 190.367188 47.285156 191.019531 47.285156 191.820312 C 47.285156 192.621094 47.9375 193.269531 48.738281 193.269531 C 49.539062 193.269531 50.191406 192.621094 50.191406 191.820312 C 50.191406 191.019531 49.539062 190.367188 48.738281 190.367188 Z M 92.925781 190.367188 C 92.125 190.367188 91.472656 191.019531 91.472656 191.820312 C 91.472656 192.621094 92.125 193.269531 92.925781 193.269531 C 93.730469 193.269531 94.378906 192.621094 94.378906 191.820312 C 94.378906 191.019531 93.730469 190.367188 92.925781 190.367188 Z M 103.976562 190.367188 C 103.171875 190.367188 102.519531 191.019531 102.519531 191.820312 C 102.519531 192.621094 103.171875 193.269531 103.976562 193.269531 C 104.777344 193.269531 105.429688 192.621094 105.429688 191.820312 C 105.429688 191.019531 104.777344 190.367188 103.976562 190.367188 Z M 126.070312 190.367188 C 125.269531 190.367188 124.617188 191.019531 124.617188 191.820312 C 124.617188 192.621094 125.269531 193.269531 126.070312 193.269531 C 126.871094 193.269531 127.523438 192.621094 127.523438 191.820312 C 127.523438 191.019531 126.871094 190.367188 126.070312 190.367188 Z M 115.023438 190.367188 C 114.21875 190.367188 113.570312 191.019531 113.570312 191.820312 C 113.570312 192.621094 114.21875 193.269531 115.023438 193.269531 C 115.824219 193.269531 116.476562 192.621094 116.476562 191.820312 C 116.476562 191.019531 115.824219 190.367188 115.023438 190.367188 Z M 137.117188 190.367188 C 136.316406 190.367188 135.664062 191.019531 135.664062 191.820312 C 135.664062 192.621094 136.316406 193.269531 137.117188 193.269531 C 137.917969 193.269531 138.570312 192.621094 138.570312 191.820312 C 138.570312 191.019531 137.917969 190.367188 137.117188 190.367188 Z M 280.921875 138.507812 C 280.710938 137.734375 279.90625 137.277344 279.136719 137.484375 C 278.363281 137.695312 277.902344 138.488281 278.109375 139.269531 C 278.285156 139.910156 278.875 140.335938 279.511719 140.335938 C 279.640625 140.335938 279.769531 140.324219 279.894531 140.289062 C 280.671875 140.078125 281.128906 139.277344 280.921875 138.507812 Z M 276.988281 126.785156 C 276.6875 126.042969 275.84375 125.679688 275.097656 125.984375 C 274.355469 126.285156 273.996094 127.128906 274.292969 127.871094 C 274.523438 128.4375 275.066406 128.785156 275.640625 128.785156 C 275.820312 128.785156 276.007812 128.746094 276.1875 128.675781 C 276.925781 128.375 277.289062 127.53125 276.988281 126.785156 Z M 271.449219 115.660156 C 271.027344 114.980469 270.132812 114.769531 269.449219 115.1875 C 268.761719 115.609375 268.554688 116.503906 268.972656 117.183594 C 269.242188 117.628906 269.722656 117.875 270.210938 117.875 C 270.472656 117.875 270.734375 117.804688 270.972656 117.660156 C 271.65625 117.242188 271.867188 116.347656 271.449219 115.660156 Z M 263.652344 105.855469 C 263.070312 105.296875 262.152344 105.316406 261.59375 105.890625 C 261.039062 106.46875 261.058594 107.390625 261.632812 107.945312 C 261.917969 108.21875 262.28125 108.351562 262.640625 108.351562 C 263.023438 108.351562 263.40625 108.199219 263.691406 107.90625 C 264.246094 107.324219 264.226562 106.40625 263.652344 105.855469 Z M 253.742188 98.261719 C 253.070312 97.839844 252.167969 98.042969 251.742188 98.714844 C 251.3125 99.394531 251.515625 100.289062 252.199219 100.71875 C 252.433594 100.867188 252.703125 100.945312 252.96875 100.945312 C 253.453125 100.945312 253.925781 100.703125 254.203125 100.265625 C 254.628906 99.585938 254.421875 98.691406 253.742188 98.261719 Z M 242.859375 92.378906 C 242.132812 92.039062 241.265625 92.347656 240.921875 93.074219 C 240.582031 93.796875 240.894531 94.660156 241.621094 95.003906 C 241.816406 95.097656 242.027344 95.144531 242.234375 95.144531 C 242.785156 95.144531 243.304688 94.835938 243.550781 94.308594 C 243.894531 93.589844 243.585938 92.722656 242.859375 92.378906 Z M 231.539062 87.546875 C 230.789062 87.253906 229.945312 87.628906 229.652344 88.375 C 229.371094 89.125 229.742188 89.960938 230.492188 90.25 C 230.660156 90.316406 230.839844 90.347656 231.007812 90.347656 C 231.59375 90.347656 232.148438 89.996094 232.371094 89.421875 C 232.660156 88.671875 232.285156 87.828125 231.539062 87.546875 Z M 219.777344 83.730469 C 218.996094 83.523438 218.207031 83.988281 218 84.765625 C 217.792969 85.535156 218.257812 86.332031 219.039062 86.535156 C 219.160156 86.570312 219.28125 86.582031 219.410156 86.582031 C 220.046875 86.582031 220.640625 86.152344 220.8125 85.503906 C 221.011719 84.722656 220.546875 83.933594 219.777344 83.730469 Z M 207.609375 81.351562 C 206.816406 81.253906 206.089844 81.816406 205.988281 82.609375 C 205.890625 83.40625 206.453125 84.132812 207.25 84.238281 L 207.25 84.230469 C 207.308594 84.242188 207.371094 84.242188 207.429688 84.242188 C 208.152344 84.242188 208.78125 83.707031 208.875 82.976562 C 208.972656 82.179688 208.40625 81.453125 207.609375 81.351562 Z M 196.703125 82.144531 C 196.675781 81.34375 196.007812 80.71875 195.203125 80.742188 C 194.402344 80.765625 193.765625 81.4375 193.796875 82.238281 C 193.820312 83.023438 194.464844 83.644531 195.25 83.644531 C 195.261719 83.644531 195.28125 83.644531 195.296875 83.644531 C 196.101562 83.617188 196.726562 82.945312 196.703125 82.144531 Z M 184.558594 83.289062 C 184.40625 82.507812 183.644531 81.988281 182.855469 82.140625 C 182.0625 82.292969 181.550781 83.058594 181.703125 83.84375 C 181.835938 84.539062 182.445312 85.019531 183.125 85.019531 C 183.21875 85.019531 183.3125 85.007812 183.40625 84.988281 C 184.191406 84.839844 184.710938 84.082031 184.558594 83.289062 Z M 172.71875 86.257812 C 172.457031 85.496094 171.632812 85.097656 170.875 85.355469 C 170.113281 85.617188 169.710938 86.441406 169.976562 87.195312 C 170.175781 87.800781 170.742188 88.179688 171.347656 88.179688 C 171.503906 88.179688 171.660156 88.15625 171.816406 88.097656 L 171.816406 88.105469 C 172.578125 87.839844 172.980469 87.011719 172.71875 86.257812 Z M 161.363281 90.726562 C 161.027344 90 160.160156 89.683594 159.433594 90.023438 C 158.707031 90.359375 158.390625 91.21875 158.730469 91.953125 C 158.972656 92.480469 159.503906 92.789062 160.050781 92.789062 C 160.253906 92.789062 160.460938 92.746094 160.660156 92.65625 C 161.386719 92.316406 161.707031 91.453125 161.363281 90.726562 Z M 150.523438 96.328125 C 150.101562 95.652344 149.203125 95.433594 148.527344 95.859375 C 147.84375 96.285156 147.628906 97.175781 148.054688 97.863281 C 148.332031 98.304688 148.808594 98.546875 149.292969 98.546875 C 149.554688 98.546875 149.824219 98.476562 150.0625 98.328125 C 150.738281 97.902344 150.949219 97.007812 150.523438 96.328125 Z M 140.578125 103.371094 C 140.042969 102.773438 139.121094 102.722656 138.523438 103.253906 C 137.925781 103.789062 137.875 104.707031 138.40625 105.304688 C 138.691406 105.628906 139.089844 105.792969 139.488281 105.792969 C 139.832031 105.792969 140.179688 105.671875 140.460938 105.421875 C 141.054688 104.890625 141.113281 103.976562 140.578125 103.371094 Z M 132.164062 112.179688 C 131.519531 111.703125 130.605469 111.839844 130.128906 112.488281 C 129.652344 113.132812 129.785156 114.035156 130.429688 114.511719 C 130.691406 114.703125 130.992188 114.796875 131.296875 114.796875 C 131.738281 114.796875 132.179688 114.59375 132.464844 114.210938 C 132.941406 113.566406 132.800781 112.660156 132.164062 112.179688 Z M 125.5625 122.425781 C 124.847656 122.058594 123.972656 122.339844 123.605469 123.054688 C 123.238281 123.765625 123.523438 124.640625 124.238281 125.011719 C 124.449219 125.117188 124.675781 125.171875 124.898438 125.171875 C 125.425781 125.171875 125.9375 124.878906 126.191406 124.382812 C 126.558594 123.667969 126.277344 122.792969 125.5625 122.425781 Z M 120.539062 133.53125 C 119.785156 133.257812 118.953125 133.648438 118.679688 134.402344 C 118.675781 134.402344 118.675781 134.402344 118.675781 134.402344 C 118.40625 135.15625 118.792969 135.984375 119.546875 136.261719 C 119.714844 136.316406 119.878906 136.347656 120.046875 136.347656 C 120.640625 136.347656 121.199219 135.980469 121.410156 135.390625 C 121.6875 134.632812 121.296875 133.804688 120.539062 133.53125 Z M 282.472656 122.859375 C 285.929688 130.21875 288.253906 137.878906 289.832031 145.707031 C 285.125 145.734375 281.636719 148.320312 279.058594 152 C 278.234375 146.238281 277.003906 140.523438 275.210938 134.90625 C 272.039062 124.941406 267.269531 114.605469 259.40625 107.457031 C 251.65625 100.410156 241.613281 95.667969 231.992188 91.746094 C 221.855469 87.613281 211.070312 84.816406 200.09375 84.421875 C 189.113281 84.023438 178.203125 86.304688 168.042969 90.386719 C 158.167969 94.355469 148.207031 99.542969 140.429688 106.914062 C 132.816406 114.128906 127.484375 123.546875 123.730469 133.25 C 120.863281 140.652344 118.992188 148.316406 117.792969 156.105469 C 117.542969 153.273438 117.050781 150.429688 116.199219 147.84375 C 116.214844 147.890625 116.234375 147.941406 116.25 147.988281 C 116.359375 148.011719 116.460938 148.019531 116.5625 148.019531 C 117.222656 148.019531 117.816406 147.574219 117.980469 146.90625 C 118.160156 146.128906 117.679688 145.34375 116.902344 145.160156 C 116.3125 145.019531 115.722656 145.257812 115.386719 145.722656 C 115.398438 145.746094 115.40625 145.765625 115.417969 145.789062 C 114.753906 144.277344 113.941406 142.894531 112.9375 141.710938 C 110.550781 138.902344 107.332031 137.390625 103.621094 137.316406 C 105.554688 129.96875 108.597656 122.972656 112.882812 116.484375 C 125.054688 98.03125 144.421875 85.914062 165.042969 78.816406 C 186.785156 71.335938 211.414062 69.21875 232.878906 78.746094 C 243.210938 83.328125 253.1875 89.890625 262.027344 96.894531 C 270.839844 103.878906 277.703125 112.691406 282.472656 122.859375 Z M 229.125 110.738281 C 229.457031 110.886719 229.785156 111.042969 230.113281 111.199219 L 234.105469 102.808594 C 233.734375 102.632812 233.363281 102.457031 232.988281 102.289062 Z M 220.488281 107.515625 C 220.832031 107.621094 221.179688 107.726562 221.527344 107.832031 L 224.308594 98.96875 C 223.914062 98.847656 223.519531 98.726562 223.125 98.609375 Z M 237.003906 115.121094 C 237.289062 115.320312 237.574219 115.527344 237.851562 115.730469 L 243.386719 108.261719 C 243.039062 108.011719 242.695312 107.761719 242.34375 107.515625 Z M 211.464844 105.507812 C 211.820312 105.5625 212.179688 105.621094 212.535156 105.679688 L 214.089844 96.523438 C 213.683594 96.453125 213.273438 96.386719 212.867188 96.328125 Z M 271.273438 161.65625 L 262.070312 163.03125 C 262.085938 163.117188 262.097656 163.203125 262.109375 163.289062 C 262.328125 163.277344 262.554688 163.273438 262.78125 163.273438 C 263.742188 163.273438 264.761719 163.363281 265.804688 163.546875 C 265.890625 163.558594 265.976562 163.582031 266.0625 163.597656 L 271.445312 162.863281 C 271.390625 162.460938 271.332031 162.058594 271.273438 161.65625 Z M 257.097656 122.957031 L 249.347656 128.097656 C 249.546875 128.394531 249.742188 128.695312 249.9375 129 L 257.777344 124 C 257.554688 123.648438 257.328125 123.300781 257.097656 122.957031 Z M 250.5 114.605469 L 243.726562 120.96875 C 243.96875 121.226562 244.207031 121.484375 244.445312 121.75 L 251.355469 115.53125 C 251.074219 115.21875 250.789062 114.910156 250.5 114.605469 Z M 202.230469 104.71875 C 202.597656 104.726562 202.960938 104.738281 203.324219 104.75 L 203.652344 95.46875 C 203.242188 95.453125 202.828125 95.441406 202.417969 95.433594 Z M 181.625 97.738281 L 183.839844 106.757812 C 184.195312 106.671875 184.550781 106.589844 184.90625 106.507812 L 182.820312 97.453125 C 182.421875 97.546875 182.023438 97.640625 181.625 97.738281 Z M 133.140625 135.316406 L 141.472656 139.453125 C 141.628906 139.136719 141.789062 138.820312 141.953125 138.503906 L 133.710938 134.203125 C 133.515625 134.570312 133.328125 134.941406 133.140625 135.316406 Z M 138.433594 146.890625 L 129.59375 143.988281 C 129.464844 144.378906 129.339844 144.773438 129.214844 145.167969 L 138.101562 147.925781 C 138.207031 147.578125 138.320312 147.234375 138.433594 146.890625 Z M 269.53125 152.71875 C 269.4375 152.324219 269.339844 151.9375 269.242188 151.542969 L 260.21875 153.800781 C 260.308594 154.160156 260.398438 154.519531 260.484375 154.878906 Z M 262.28125 132.082031 L 253.90625 136.125 C 254.066406 136.457031 254.222656 136.785156 254.378906 137.117188 L 262.808594 133.191406 C 262.636719 132.816406 262.460938 132.449219 262.28125 132.082031 Z M 191.941406 95.910156 L 192.972656 105.140625 C 193.332031 105.101562 193.695312 105.066406 194.058594 105.03125 L 193.171875 95.785156 C 192.761719 95.824219 192.351562 95.867188 191.941406 95.910156 Z M 266.269531 141.667969 L 257.5 144.765625 C 257.625 145.117188 257.746094 145.464844 257.863281 145.816406 L 266.671875 142.820312 C 266.539062 142.4375 266.40625 142.050781 266.269531 141.667969 Z M 126.75 155.28125 L 135.894531 156.976562 C 135.964844 156.613281 136.035156 156.25 136.105469 155.886719 L 126.976562 154.089844 C 126.898438 154.488281 126.824219 154.882812 126.75 155.28125 Z M 162.117188 105.371094 L 166.652344 113.484375 C 166.96875 113.308594 167.285156 113.132812 167.605469 112.964844 L 163.203125 104.777344 C 162.839844 104.972656 162.476562 105.171875 162.117188 105.371094 Z M 171.621094 100.898438 L 175.011719 109.546875 C 175.347656 109.417969 175.6875 109.289062 176.027344 109.160156 L 172.777344 100.457031 C 172.390625 100.601562 172.007812 100.75 171.621094 100.898438 Z M 138.605469 126.246094 L 146.183594 131.636719 C 146.394531 131.339844 146.605469 131.050781 146.820312 130.761719 L 139.34375 125.234375 C 139.09375 125.570312 138.851562 125.90625 138.605469 126.246094 Z M 145.390625 118.128906 L 152.0625 124.605469 C 152.3125 124.347656 152.566406 124.089844 152.824219 123.839844 L 146.269531 117.246094 C 145.976562 117.539062 145.683594 117.832031 145.390625 118.128906 Z M 154.292969 110.394531 L 159.8125 117.875 C 159.519531 118.089844 159.226562 118.304688 158.941406 118.523438 L 153.300781 111.136719 C 153.632812 110.886719 153.960938 110.640625 154.292969 110.394531 " fill-opacity="1" fill-rule="nonzero"/></g><g fill="#ffde59" fill-opacity="1"><g transform="translate(42.415403, 282.198289)"><g><path d="M 1.21875 0 C 0.550781 0 0.367188 -0.484375 0.671875 -1.453125 C 0.671875 -1.671875 0.707031 -1.851562 0.78125 -2 C 0.78125 -2.15625 0.816406 -2.34375 0.890625 -2.5625 C 0.960938 -2.789062 1.070312 -3.125 1.21875 -3.5625 L 2.234375 -7.6875 C 2.378906 -8.132812 2.632812 -8.914062 3 -10.03125 C 3.375 -11.144531 3.640625 -12.1875 3.796875 -13.15625 C 4.160156 -14.9375 4.863281 -17.648438 5.90625 -21.296875 L 6.796875 -24.421875 C 8.210938 -29.023438 9.101562 -32.253906 9.46875 -34.109375 L 11.03125 -40.015625 C 11.78125 -42.472656 12.226562 -44.035156 12.375 -44.703125 C 12.894531 -46.929688 13.640625 -49.71875 14.609375 -53.0625 L 15.390625 -56.1875 L 16.046875 -58.53125 C 16.796875 -61.050781 17.429688 -62.867188 17.953125 -63.984375 C 18.097656 -64.429688 18.632812 -65.972656 19.5625 -68.609375 C 20.488281 -71.253906 21.101562 -73.359375 21.40625 -74.921875 C 21.925781 -76.703125 22.460938 -78.035156 23.015625 -78.921875 C 23.578125 -79.816406 24.34375 -80.265625 25.3125 -80.265625 C 25.675781 -80.265625 26.046875 -79.929688 26.421875 -79.265625 C 26.796875 -78.597656 27.164062 -77.78125 27.53125 -76.8125 C 27.90625 -75.84375 28.164062 -75.132812 28.3125 -74.6875 C 28.90625 -73.28125 29.945312 -69.753906 31.4375 -64.109375 L 32.328125 -60.984375 C 32.398438 -60.390625 33.628906 -56.75 36.015625 -50.0625 L 38.125 -43.921875 L 40.140625 -38.6875 C 42.210938 -32.8125 43.546875 -29.242188 44.140625 -27.984375 C 46.742188 -20.109375 48.269531 -15.351562 48.71875 -13.71875 C 49.238281 -11.78125 50.070312 -9.363281 51.21875 -6.46875 C 52.375 -3.570312 53.023438 -1.9375 53.171875 -1.5625 C 53.398438 -1.039062 53.515625 -0.671875 53.515625 -0.453125 C 53.515625 -0.148438 53.101562 0 52.28125 0 L 46.046875 0 C 45.742188 0 45.5 -0.0507812 45.3125 -0.15625 C 45.132812 -0.269531 44.96875 -0.550781 44.8125 -1 C 44.519531 -1.820312 44.113281 -3.160156 43.59375 -5.015625 C 42.925781 -6.867188 42.476562 -8.539062 42.25 -10.03125 C 42.03125 -11.144531 41.675781 -12.484375 41.1875 -14.046875 C 40.707031 -15.609375 40.28125 -16.796875 39.90625 -17.609375 C 39.238281 -19.023438 38.644531 -20.625 38.125 -22.40625 L 37.125 -25.640625 C 36.75 -26.460938 36.46875 -26.960938 36.28125 -27.140625 C 36.101562 -27.328125 35.789062 -27.421875 35.34375 -27.421875 C 33.78125 -27.421875 32.628906 -27.382812 31.890625 -27.3125 L 27.09375 -27.09375 C 26.5 -27.019531 23.75 -26.984375 18.84375 -26.984375 L 11.8125 -26.984375 C 11.363281 -26.984375 11.03125 -26.570312 10.8125 -25.75 L 10.59375 -24.640625 L 10.140625 -22.515625 C 9.992188 -22.066406 9.515625 -19.910156 8.703125 -16.046875 C 8.472656 -14.785156 8.097656 -13.148438 7.578125 -11.140625 C 7.429688 -9.660156 7.097656 -8.4375 6.578125 -7.46875 C 6.429688 -7.25 6.242188 -6.726562 6.015625 -5.90625 C 5.796875 -5.09375 5.613281 -4.425781 5.46875 -3.90625 C 5.238281 -3.3125 4.976562 -2.34375 4.6875 -1 C 4.613281 -0.925781 4.535156 -0.757812 4.453125 -0.5 C 4.378906 -0.238281 4.269531 -0.0859375 4.125 -0.046875 C 3.976562 -0.015625 3.753906 0 3.453125 0 Z M 22.515625 -34.5625 C 23.410156 -34.707031 24.675781 -34.78125 26.3125 -34.78125 L 32.328125 -34.671875 C 33.296875 -34.671875 33.78125 -34.929688 33.78125 -35.453125 C 33.78125 -35.828125 33.519531 -36.644531 33 -37.90625 C 32.550781 -39.019531 31.882812 -41.097656 31 -44.140625 C 30.320312 -46.597656 29.648438 -48.71875 28.984375 -50.5 C 28.242188 -52.726562 27.445312 -55.363281 26.59375 -58.40625 C 25.738281 -61.457031 25.234375 -63.429688 25.078125 -64.328125 C 23.960938 -68.265625 23.222656 -70.234375 22.859375 -70.234375 C 22.628906 -70.234375 22.253906 -69.226562 21.734375 -67.21875 L 21.078125 -64.765625 C 20.554688 -62.765625 19.882812 -60.257812 19.0625 -57.25 C 18.25 -54.238281 17.503906 -51.691406 16.828125 -49.609375 C 16.390625 -47.679688 15.78125 -45.25 15 -42.3125 C 14.21875 -39.375 13.601562 -37.347656 13.15625 -36.234375 C 13.007812 -35.785156 12.9375 -35.523438 12.9375 -35.453125 C 12.9375 -34.929688 13.175781 -34.59375 13.65625 -34.4375 C 14.132812 -34.289062 14.613281 -34.238281 15.09375 -34.28125 C 15.582031 -34.320312 15.898438 -34.34375 16.046875 -34.34375 Z M 22.515625 -34.5625 "/></g></g></g><g fill="#ffde59" fill-opacity="1"><g transform="translate(95.372039, 282.198289)"><g><path d="M 10.03125 0.78125 C 8.84375 0.78125 8.023438 0.410156 7.578125 -0.328125 C 7.128906 -1.078125 6.90625 -2.117188 6.90625 -3.453125 L 7.03125 -28.203125 L 7.03125 -33.5625 C 7.03125 -36.382812 7.140625 -38.945312 7.359375 -41.25 L 7.6875 -54.84375 C 7.6875 -56.40625 7.722656 -58.726562 7.796875 -61.8125 C 7.878906 -64.894531 7.957031 -66.847656 8.03125 -67.671875 C 8.101562 -68.265625 8.140625 -69.304688 8.140625 -70.796875 C 8.140625 -73.390625 8.023438 -75.242188 7.796875 -76.359375 C 7.722656 -76.515625 7.6875 -76.703125 7.6875 -76.921875 C 7.6875 -77.367188 8.097656 -77.703125 8.921875 -77.921875 C 9.660156 -78.148438 11.628906 -78.46875 14.828125 -78.875 C 18.023438 -79.28125 20.921875 -79.484375 23.515625 -79.484375 C 30.578125 -79.484375 36.171875 -78.070312 40.296875 -75.25 C 44.421875 -72.425781 46.484375 -67.078125 46.484375 -59.203125 C 46.484375 -52.066406 44.328125 -46.488281 40.015625 -42.46875 C 38.085938 -40.832031 35.972656 -39.609375 33.671875 -38.796875 C 37.984375 -37.234375 42.421875 -34.613281 46.984375 -30.9375 C 51.554688 -27.257812 53.84375 -21.78125 53.84375 -14.5 C 53.84375 -9.738281 52.148438 -6.257812 48.765625 -4.0625 C 45.390625 -1.875 41.972656 -0.570312 38.515625 -0.15625 C 35.054688 0.25 31.429688 0.453125 27.640625 0.453125 L 16.828125 0.671875 Z M 22.078125 -40.25 C 23.554688 -40.25 25.859375 -40.65625 28.984375 -41.46875 C 32.109375 -42.289062 35.117188 -44.035156 38.015625 -46.703125 C 40.910156 -49.378906 42.359375 -53.25 42.359375 -58.3125 C 42.359375 -63.65625 41.429688 -67.628906 39.578125 -70.234375 C 37.722656 -72.835938 35.398438 -74.488281 32.609375 -75.1875 C 29.816406 -75.894531 26.269531 -76.25 21.96875 -76.25 L 21.734375 -69.125 C 21.585938 -63.769531 21.515625 -59.789062 21.515625 -57.1875 L 21.515625 -44.484375 C 21.515625 -43.742188 21.476562 -43.09375 21.40625 -42.53125 C 21.332031 -41.96875 21.296875 -41.539062 21.296875 -41.25 C 21.296875 -40.800781 21.332031 -40.519531 21.40625 -40.40625 C 21.476562 -40.300781 21.703125 -40.25 22.078125 -40.25 Z M 24.96875 -1.671875 C 32.25 -1.671875 37.710938 -2.84375 41.359375 -5.1875 C 45.003906 -7.53125 46.828125 -10.671875 46.828125 -14.609375 C 46.828125 -24.566406 42.550781 -31.328125 34 -34.890625 C 30.207031 -36.304688 25.9375 -36.976562 21.1875 -36.90625 C 21.113281 -36.675781 21.078125 -36.378906 21.078125 -36.015625 C 20.992188 -35.640625 20.953125 -34.78125 20.953125 -33.4375 L 21.1875 -26.3125 L 21.40625 -20.296875 C 21.40625 -19.253906 21.367188 -18.507812 21.296875 -18.0625 L 21.1875 -15.15625 L 21.40625 -8.578125 L 21.625 -3.453125 C 21.625 -2.566406 21.789062 -2.03125 22.125 -1.84375 C 22.457031 -1.65625 22.941406 -1.578125 23.578125 -1.609375 C 24.210938 -1.648438 24.675781 -1.671875 24.96875 -1.671875 Z M 24.96875 -1.671875 "/></g></g></g><g fill="#ffde59" fill-opacity="1"><g transform="translate(152.453707, 282.198289)"><g><path d="M 32.671875 1.34375 C 27.835938 1.34375 23.207031 -0.457031 18.78125 -4.0625 C 14.363281 -7.664062 10.816406 -12.585938 8.140625 -18.828125 C 5.460938 -25.078125 4.125 -31.957031 4.125 -39.46875 C 4.125 -46.894531 5.40625 -53.582031 7.96875 -59.53125 C 10.53125 -65.476562 13.816406 -70.125 17.828125 -73.46875 C 21.847656 -76.8125 25.976562 -78.484375 30.21875 -78.484375 C 35.488281 -78.484375 39.738281 -77.382812 42.96875 -75.1875 C 46.207031 -73 48.53125 -70.898438 49.9375 -68.890625 C 50.238281 -68.453125 50.519531 -68.046875 50.78125 -67.671875 C 51.039062 -67.296875 51.171875 -66.925781 51.171875 -66.5625 C 51.171875 -66.113281 50.757812 -65.515625 49.9375 -64.765625 C 46.519531 -62.097656 44.070312 -59.757812 42.59375 -57.75 C 41.84375 -56.78125 41.207031 -56.050781 40.6875 -55.5625 C 40.164062 -55.082031 39.644531 -54.84375 39.125 -54.84375 C 38.601562 -54.84375 38.007812 -55.21875 37.34375 -55.96875 C 35.78125 -57.675781 34.570312 -58.878906 33.71875 -59.578125 C 32.863281 -60.285156 31.84375 -60.640625 30.65625 -60.640625 C 28.800781 -60.640625 26.960938 -59.859375 25.140625 -58.296875 C 23.316406 -56.742188 21.773438 -54.164062 20.515625 -50.5625 C 19.253906 -46.957031 18.625 -42.328125 18.625 -36.671875 C 18.625 -31.171875 19.421875 -26.804688 21.015625 -23.578125 C 22.609375 -20.347656 24.425781 -18.097656 26.46875 -16.828125 C 28.519531 -15.566406 30.285156 -14.9375 31.765625 -14.9375 C 33.109375 -14.9375 34.484375 -15.398438 35.890625 -16.328125 C 37.304688 -17.253906 38.535156 -18.238281 39.578125 -19.28125 C 39.722656 -19.4375 39.960938 -19.695312 40.296875 -20.0625 C 40.628906 -20.4375 40.945312 -20.625 41.25 -20.625 C 41.625 -20.625 42.070312 -20.472656 42.59375 -20.171875 L 52.0625 -14.9375 C 52.363281 -14.789062 52.828125 -14.585938 53.453125 -14.328125 C 54.085938 -14.066406 54.535156 -13.820312 54.796875 -13.59375 C 55.054688 -13.375 55.1875 -13.078125 55.1875 -12.703125 C 55.1875 -12.335938 55.070312 -11.929688 54.84375 -11.484375 C 53.207031 -8.734375 50.644531 -5.90625 47.15625 -3 C 43.664062 -0.101562 38.835938 1.34375 32.671875 1.34375 Z M 32.671875 1.34375 "/></g></g></g><g fill="#f04e56" fill-opacity="1"><g transform="translate(60.193078, 307.272515)"><g><path d="M 12.09375 -15.390625 C 11.257812 -15.722656 10.382812 -15.890625 9.46875 -15.890625 C 7.613281 -15.890625 6.113281 -15.207031 4.96875 -13.84375 C 3.832031 -12.488281 3.265625 -10.5 3.265625 -7.875 C 3.265625 -5.25 3.863281 -3.410156 5.0625 -2.359375 C 5.882812 -1.617188 7.023438 -1.25 8.484375 -1.25 C 9.421875 -1.25 10.359375 -1.351562 11.296875 -1.5625 C 12.242188 -1.78125 12.890625 -1.988281 13.234375 -2.1875 L 13.578125 -0.984375 C 12.859375 -0.503906 11.59375 -0.175781 9.78125 0 C 9.257812 0.0625 8.707031 0.09375 8.125 0.09375 C 7.539062 0.09375 6.851562 0 6.0625 -0.1875 C 5.28125 -0.375 4.554688 -0.753906 3.890625 -1.328125 C 2.359375 -2.617188 1.59375 -4.773438 1.59375 -7.796875 C 1.59375 -10.816406 2.3125 -13.148438 3.75 -14.796875 C 5.1875 -16.441406 7.050781 -17.265625 9.34375 -17.265625 C 10.625 -17.265625 11.722656 -17.007812 12.640625 -16.5 C 12.984375 -16.320312 13.253906 -16.125 13.453125 -15.90625 L 13.453125 -12.34375 L 12.21875 -12.265625 Z M 12.09375 -15.390625 "/></g></g></g><g fill="#f04e56" fill-opacity="1"><g transform="translate(78.430093, 307.272515)"><g><path d="M 8.859375 -17.3125 C 13.691406 -17.3125 16.109375 -14.394531 16.109375 -8.5625 C 16.109375 -5.882812 15.421875 -3.769531 14.046875 -2.21875 C 12.671875 -0.675781 10.941406 0.09375 8.859375 0.09375 C 6.640625 0.09375 4.925781 -0.507812 3.71875 -1.71875 C 2.300781 -3.164062 1.59375 -5.335938 1.59375 -8.234375 C 1.59375 -11.140625 2.285156 -13.378906 3.671875 -14.953125 C 5.054688 -16.523438 6.785156 -17.3125 8.859375 -17.3125 Z M 4.921875 -2.90625 C 5.816406 -1.882812 7.128906 -1.375 8.859375 -1.375 C 10.472656 -1.375 11.804688 -2.015625 12.859375 -3.296875 C 13.910156 -4.585938 14.4375 -6.4375 14.4375 -8.84375 C 14.4375 -11.257812 13.882812 -13.070312 12.78125 -14.28125 C 11.863281 -15.320312 10.554688 -15.84375 8.859375 -15.84375 C 7.242188 -15.84375 5.90625 -15.191406 4.84375 -13.890625 C 3.789062 -12.597656 3.265625 -10.742188 3.265625 -8.328125 C 3.265625 -5.910156 3.816406 -4.101562 4.921875 -2.90625 Z M 4.921875 -2.90625 "/></g></g></g><g fill="#f04e56" fill-opacity="1"><g transform="translate(99.812737, 307.272515)"><g><path d="M 1.96875 -17.21875 L 6.390625 -17.21875 C 9.835938 -17.21875 12.085938 -15.773438 13.140625 -12.890625 C 13.523438 -11.835938 13.71875 -10.453125 13.71875 -8.734375 C 13.71875 -7.023438 13.53125 -5.582031 13.15625 -4.40625 C 12.78125 -3.238281 12.25 -2.328125 11.5625 -1.671875 C 10.875 -1.015625 10.039062 -0.570312 9.0625 -0.34375 C 8.082031 -0.113281 6.988281 0 5.78125 0 L 1.96875 0 Z M 3.640625 -15.859375 L 3.640625 -1.359375 L 5.65625 -1.359375 C 6.507812 -1.359375 7.328125 -1.429688 8.109375 -1.578125 C 10.734375 -2.035156 12.046875 -4.46875 12.046875 -8.875 C 12.046875 -11.351562 11.472656 -13.179688 10.328125 -14.359375 C 9.328125 -15.359375 7.972656 -15.859375 6.265625 -15.859375 Z M 3.640625 -15.859375 "/></g></g></g><g fill="#f04e56" fill-opacity="1"><g transform="translate(118.811574, 307.272515)"><g><path d="M 10.796875 -15.734375 L 3.640625 -15.734375 L 3.640625 -9.265625 L 10.28125 -9.265625 L 10.15625 -7.796875 L 3.640625 -7.796875 L 3.640625 -1.46875 L 11.40625 -1.46875 L 11.28125 0 L 1.96875 0 L 1.96875 -17.21875 L 10.921875 -17.21875 Z M 10.796875 -15.734375 "/></g></g></g><g fill="#f04e56" fill-opacity="1"><g transform="translate(134.885953, 307.272515)"><g/></g></g><g fill="#f04e56" fill-opacity="1"><g transform="translate(145.922407, 307.272515)"><g><path d="M 14.390625 -17.21875 L 14.390625 -7.375 C 14.390625 -4.820312 13.789062 -2.894531 12.59375 -1.59375 C 11.53125 -0.46875 10.066406 0.09375 8.203125 0.09375 C 6.335938 0.09375 4.914062 -0.347656 3.9375 -1.234375 C 2.625 -2.429688 1.96875 -4.476562 1.96875 -7.375 L 1.96875 -17.21875 L 3.640625 -17.21875 L 3.640625 -7.40625 C 3.640625 -5.03125 4.128906 -3.347656 5.109375 -2.359375 C 5.847656 -1.617188 6.914062 -1.25 8.3125 -1.25 C 10.394531 -1.25 11.78125 -2.34375 12.46875 -4.53125 C 12.71875 -5.300781 12.84375 -6.257812 12.84375 -7.40625 L 12.84375 -17.21875 Z M 14.390625 -17.21875 "/></g></g></g><g fill="#f04e56" fill-opacity="1"><g transform="translate(165.756797, 307.272515)"><g><path d="M 13.015625 0 L 3.203125 -15 L 3.3125 0 L 1.765625 0 L 1.765625 -17.21875 L 3.5625 -17.21875 L 13.359375 -2.21875 L 13.25 -17.21875 L 14.8125 -17.21875 L 14.8125 0 Z M 13.015625 0 "/></g></g></g><g fill="#f04e56" fill-opacity="1"><g transform="translate(186.033533, 307.272515)"><g><path d="M 6.34375 0 L 1.71875 0 L 1.71875 -1.1875 L 3.203125 -1.359375 L 3.203125 -15.84375 L 1.84375 -16.015625 L 1.84375 -17.21875 L 6.21875 -17.21875 L 6.21875 -16.015625 L 4.875 -15.84375 L 4.875 -1.359375 L 6.34375 -1.1875 Z M 6.34375 0 "/></g></g></g><g fill="#f04e56" fill-opacity="1"><g transform="translate(198.274174, 307.272515)"><g><path d="M 8.359375 -1.875 L 13.546875 -17.21875 L 15.15625 -17.21875 L 9.046875 0 L 7.421875 0 L 1.109375 -17.21875 L 2.78125 -17.21875 Z M 8.359375 -1.875 "/></g></g></g><g fill="#f04e56" fill-opacity="1"><g transform="translate(218.280585, 307.272515)"><g><path d="M 10.796875 -15.734375 L 3.640625 -15.734375 L 3.640625 -9.265625 L 10.28125 -9.265625 L 10.15625 -7.796875 L 3.640625 -7.796875 L 3.640625 -1.46875 L 11.40625 -1.46875 L 11.28125 0 L 1.96875 0 L 1.96875 -17.21875 L 10.921875 -17.21875 Z M 10.796875 -15.734375 "/></g></g></g><g fill="#f04e56" fill-opacity="1"><g transform="translate(234.35496, 307.272515)"><g><path d="M 11.484375 -12.59375 C 11.484375 -10.226562 10.671875 -8.644531 9.046875 -7.84375 L 12.765625 0 L 10.96875 0 L 7.46875 -7.328125 C 6.882812 -7.234375 6.238281 -7.1875 5.53125 -7.1875 L 3.640625 -7.1875 L 3.640625 0 L 1.96875 0 L 1.96875 -17.21875 L 5.53125 -17.21875 C 7.53125 -17.21875 8.988281 -16.90625 9.90625 -16.28125 C 10.957031 -15.570312 11.484375 -14.34375 11.484375 -12.59375 Z M 3.640625 -15.859375 L 3.640625 -8.53125 L 5.40625 -8.53125 C 6.863281 -8.53125 7.960938 -8.828125 8.703125 -9.421875 C 9.441406 -10.015625 9.8125 -11.039062 9.8125 -12.5 C 9.8125 -14.363281 8.957031 -15.441406 7.25 -15.734375 C 6.707031 -15.816406 6.09375 -15.859375 5.40625 -15.859375 Z M 3.640625 -15.859375 "/></g></g></g><g fill="#f04e56" fill-opacity="1"><g transform="translate(251.903845, 307.272515)"><g><path d="M 11.453125 -16.765625 L 11.171875 -15.375 C 9.898438 -15.65625 8.820312 -15.796875 7.9375 -15.796875 C 4.757812 -15.796875 3.171875 -14.828125 3.171875 -12.890625 C 3.171875 -12.148438 3.40625 -11.582031 3.875 -11.1875 C 4.34375 -10.789062 4.929688 -10.46875 5.640625 -10.21875 C 6.359375 -9.96875 7.125 -9.738281 7.9375 -9.53125 C 8.757812 -9.320312 9.523438 -9.046875 10.234375 -8.703125 C 11.890625 -7.878906 12.71875 -6.625 12.71875 -4.9375 C 12.71875 -3.25 12.085938 -1.972656 10.828125 -1.109375 C 9.742188 -0.347656 8.316406 0.03125 6.546875 0.03125 C 4.347656 0.03125 2.492188 -0.46875 0.984375 -1.46875 L 1.625 -2.734375 C 2.0625 -2.421875 2.691406 -2.128906 3.515625 -1.859375 C 4.335938 -1.585938 5.132812 -1.453125 5.90625 -1.453125 C 7.414062 -1.453125 8.601562 -1.695312 9.46875 -2.1875 C 10.519531 -2.789062 11.046875 -3.660156 11.046875 -4.796875 C 11.046875 -5.628906 10.8125 -6.28125 10.34375 -6.75 C 9.875 -7.21875 9.28125 -7.59375 8.5625 -7.875 C 7.851562 -8.164062 7.085938 -8.410156 6.265625 -8.609375 C 5.453125 -8.816406 4.691406 -9.078125 3.984375 -9.390625 C 2.328125 -10.117188 1.5 -11.191406 1.5 -12.609375 C 1.5 -14.035156 1.988281 -15.164062 2.96875 -16 C 3.957031 -16.84375 5.351562 -17.265625 7.15625 -17.265625 C 8.550781 -17.265625 9.984375 -17.097656 11.453125 -16.765625 Z M 11.453125 -16.765625 "/></g></g></g><g fill="#f04e56" fill-opacity="1"><g transform="translate(269.28071, 307.272515)"><g><path d="M 6.34375 0 L 1.71875 0 L 1.71875 -1.1875 L 3.203125 -1.359375 L 3.203125 -15.84375 L 1.84375 -16.015625 L 1.84375 -17.21875 L 6.21875 -17.21875 L 6.21875 -16.015625 L 4.875 -15.84375 L 4.875 -1.359375 L 6.34375 -1.1875 Z M 6.34375 0 "/></g></g></g><g fill="#f04e56" fill-opacity="1"><g transform="translate(281.521351, 307.272515)"><g><path d="M 5.96875 0 L 5.96875 -15.734375 L 1.109375 -15.734375 L 1.234375 -17.21875 L 12.375 -17.21875 L 12.25 -15.734375 L 7.53125 -15.734375 L 7.53125 0 Z M 5.96875 0 "/></g></g></g><g fill="#f04e56" fill-opacity="1"><g transform="translate(298.677043, 307.272515)"><g><path d="M 8.21875 -7.15625 L 13.3125 -17.21875 L 15.03125 -17.21875 L 9 -5.78125 L 9 0 L 7.453125 0 L 7.453125 -5.796875 L 1.109375 -17.21875 L 2.90625 -17.21875 Z M 8.21875 -7.15625 "/></g></g></g><g fill="#ffde59" fill-opacity="1"><g transform="translate(201.442697, 267.923665)"><g><path d="M 20.328125 1.59375 C 13.410156 1.59375 8.8125 -1.316406 6.53125 -7.140625 C 4.257812 -12.972656 3.125 -19.234375 3.125 -25.921875 C 3.125 -32.359375 4.003906 -37.507812 5.765625 -41.375 C 7.535156 -45.25 9.691406 -47.957031 12.234375 -49.5 C 14.773438 -51.050781 17.300781 -51.828125 19.8125 -51.828125 C 24.65625 -51.828125 28.285156 -50.4375 30.703125 -47.65625 C 33.128906 -44.875 34.679688 -41.582031 35.359375 -37.78125 C 36.035156 -33.988281 36.375 -29.695312 36.375 -24.90625 C 36.375 -21.03125 35.789062 -17.046875 34.625 -12.953125 C 33.46875 -8.867188 31.675781 -5.421875 29.25 -2.609375 C 26.832031 0.191406 23.859375 1.59375 20.328125 1.59375 Z M 19.75 -16.84375 C 21.050781 -16.84375 22.015625 -17.566406 22.640625 -19.015625 C 23.273438 -20.472656 23.59375 -22.21875 23.59375 -24.25 C 23.59375 -26.1875 23.289062 -27.878906 22.6875 -29.328125 C 22.082031 -30.773438 21.269531 -31.5 20.25 -31.5 C 19.039062 -31.5 18.132812 -30.664062 17.53125 -29 C 16.925781 -27.332031 16.625 -25.53125 16.625 -23.59375 C 16.625 -21.601562 16.816406 -19.976562 17.203125 -18.71875 C 17.585938 -17.46875 18.4375 -16.84375 19.75 -16.84375 Z M 19.75 -16.84375 "/></g></g></g><g fill="#ffde59" fill-opacity="1"><g transform="translate(240.929419, 267.923665)"><g><path d="M 6.390625 0 C 5.472656 0 5.015625 -0.820312 5.015625 -2.46875 L 5.078125 -4.359375 L 4.9375 -7.984375 L 4.859375 -11.25 L 4.796875 -13.4375 C 4.597656 -15.945312 4.5 -18.800781 4.5 -22 C 4.5 -23.882812 4.597656 -26.375 4.796875 -29.46875 C 4.984375 -32.570312 5.078125 -35.113281 5.078125 -37.09375 L 5.015625 -46.828125 C 4.960938 -47.597656 4.9375 -48.46875 4.9375 -49.4375 C 4.9375 -49.96875 5.285156 -50.289062 5.984375 -50.40625 C 6.691406 -50.53125 7.429688 -50.582031 8.203125 -50.5625 C 8.972656 -50.539062 9.503906 -50.53125 9.796875 -50.53125 L 12.40625 -50.671875 C 14.445312 -50.765625 16.09375 -50.8125 17.34375 -50.8125 C 20.300781 -50.8125 23.445312 -50.023438 26.78125 -48.453125 C 30.125 -46.878906 33.050781 -44.007812 35.5625 -39.84375 C 38.082031 -35.6875 39.34375 -30.023438 39.34375 -22.859375 C 39.34375 -16.328125 37.78125 -11.378906 34.65625 -8.015625 C 31.539062 -4.648438 28.265625 -2.492188 24.828125 -1.546875 C 21.390625 -0.609375 18.535156 -0.140625 16.265625 -0.140625 L 10.3125 -0.078125 C 9.25 -0.0234375 7.941406 0 6.390625 0 Z M 17.5 -15.53125 C 18.800781 -16.164062 20.007812 -17.035156 21.125 -18.140625 C 23.539062 -20.472656 24.75 -23.234375 24.75 -26.421875 C 24.75 -29.472656 23.585938 -31.914062 21.265625 -33.75 C 20.253906 -34.53125 19.117188 -35.113281 17.859375 -35.5 C 17.953125 -34.4375 18 -33.613281 18 -33.03125 C 18 -32.113281 17.953125 -30.78125 17.859375 -29.03125 C 17.765625 -27.382812 17.71875 -26.175781 17.71875 -25.40625 C 17.71875 -24.144531 17.664062 -22.113281 17.5625 -19.3125 C 17.519531 -18.488281 17.5 -17.226562 17.5 -15.53125 Z M 17.5 -15.53125 "/></g></g></g><g fill="#ffde59" fill-opacity="1"><g transform="translate(282.811464, 267.923665)"><g><path d="M 5.375 0.140625 C 5.082031 0.140625 4.910156 0.0546875 4.859375 -0.109375 C 4.816406 -0.273438 4.796875 -0.601562 4.796875 -1.09375 C 4.742188 -1.625 4.71875 -2.519531 4.71875 -3.78125 C 4.71875 -4.164062 4.691406 -4.585938 4.640625 -5.046875 C 4.597656 -5.503906 4.578125 -6.117188 4.578125 -6.890625 L 4.578125 -16.84375 C 4.578125 -17.8125 4.613281 -18.753906 4.6875 -19.671875 C 4.757812 -20.585938 4.796875 -21.265625 4.796875 -21.703125 C 4.984375 -23.929688 5.078125 -26.0625 5.078125 -28.09375 C 5.078125 -30.613281 5.003906 -32.597656 4.859375 -34.046875 C 4.765625 -35.691406 4.71875 -37.191406 4.71875 -38.546875 C 4.71875 -41.597656 4.789062 -45.15625 4.9375 -49.21875 C 4.9375 -49.84375 5.054688 -50.265625 5.296875 -50.484375 C 5.535156 -50.703125 5.875 -50.8125 6.3125 -50.8125 L 7.40625 -50.75 C 7.84375 -50.75 8.546875 -50.710938 9.515625 -50.640625 C 10.484375 -50.566406 11.664062 -50.53125 13.0625 -50.53125 C 14.664062 -50.53125 16.554688 -50.648438 18.734375 -50.890625 C 21.347656 -51.078125 23.085938 -51.171875 23.953125 -51.171875 C 25.941406 -51.171875 27.757812 -51.097656 29.40625 -50.953125 L 32.015625 -50.890625 C 32.640625 -50.890625 33.046875 -50.742188 33.234375 -50.453125 C 33.429688 -50.160156 33.53125 -49.628906 33.53125 -48.859375 C 33.53125 -48.421875 33.582031 -47.671875 33.6875 -46.609375 C 33.78125 -45.347656 33.828125 -44.257812 33.828125 -43.34375 C 33.828125 -42.375 33.753906 -41.476562 33.609375 -40.65625 C 33.554688 -39.925781 33.21875 -39.5625 32.59375 -39.5625 C 32.394531 -39.5625 32.125 -39.609375 31.78125 -39.703125 C 31.445312 -39.804688 31.1875 -39.878906 31 -39.921875 C 30.269531 -40.066406 28.164062 -40.140625 24.6875 -40.140625 L 21.921875 -40.21875 C 21.296875 -40.269531 20.378906 -40.296875 19.171875 -40.296875 C 18.296875 -40.296875 17.640625 -40.269531 17.203125 -40.21875 C 15.753906 -40.125 14.472656 -40.078125 13.359375 -40.078125 L 9.515625 -40.140625 C 9.117188 -40.140625 8.894531 -40.054688 8.84375 -39.890625 C 8.800781 -39.722656 8.78125 -39.320312 8.78125 -38.6875 C 8.78125 -37.820312 8.757812 -37.070312 8.71875 -36.4375 C 8.613281 -34.5 8.5625 -32.925781 8.5625 -31.71875 L 8.5625 -27.4375 C 8.5625 -26.425781 8.585938 -25.65625 8.640625 -25.125 C 9.023438 -25.070312 9.675781 -25.046875 10.59375 -25.046875 C 11.414062 -24.992188 13.113281 -24.96875 15.6875 -24.96875 C 16.75 -24.96875 18.296875 -25.019531 20.328125 -25.125 C 21.878906 -25.21875 22.894531 -25.265625 23.375 -25.265625 C 24.050781 -25.265625 24.726562 -25.226562 25.40625 -25.15625 C 26.082031 -25.082031 26.59375 -25.046875 26.9375 -25.046875 C 27.5625 -25.046875 27.875 -24.753906 27.875 -24.171875 C 27.875 -23.984375 27.847656 -23.707031 27.796875 -23.34375 C 27.753906 -22.976562 27.734375 -22.503906 27.734375 -21.921875 L 27.796875 -18.078125 C 27.796875 -17.640625 27.75 -17.335938 27.65625 -17.171875 C 27.5625 -17.003906 27.394531 -16.921875 27.15625 -16.921875 C 27.007812 -16.921875 26.800781 -16.953125 26.53125 -17.015625 C 26.269531 -17.085938 26.039062 -17.125 25.84375 -17.125 C 25.40625 -17.125 24.59375 -17.148438 23.40625 -17.203125 C 22.226562 -17.253906 20.617188 -17.28125 18.578125 -17.28125 C 16.398438 -17.28125 14.515625 -17.179688 12.921875 -16.984375 C 11.328125 -16.796875 10.359375 -16.703125 10.015625 -16.703125 C 9.484375 -16.703125 9.171875 -16.722656 9.078125 -16.765625 C 8.835938 -16.765625 8.691406 -16.789062 8.640625 -16.84375 L 8.640625 -9.578125 C 8.972656 -9.578125 9.238281 -9.601562 9.4375 -9.65625 L 11.46875 -9.734375 L 20.03125 -9.796875 C 21.78125 -9.796875 23.160156 -9.773438 24.171875 -9.734375 L 29.1875 -9.65625 L 32.234375 -9.734375 C 32.816406 -9.734375 33.203125 -9.597656 33.390625 -9.328125 C 33.585938 -9.054688 33.6875 -8.679688 33.6875 -8.203125 L 33.609375 -6.75 L 33.53125 -1.671875 C 33.53125 -0.898438 33.359375 -0.425781 33.015625 -0.25 C 32.679688 -0.0820312 32.203125 -0.0078125 31.578125 -0.03125 C 30.953125 -0.0625 30.441406 -0.078125 30.046875 -0.078125 C 27.972656 -0.078125 26.1875 -0.0976562 24.6875 -0.140625 L 17.28125 -0.21875 C 16.695312 -0.21875 13.789062 -0.144531 8.5625 0 L 5.8125 0.078125 Z M 5.375 0.140625 "/></g></g></g></svg>